<svg width="24" height="24" viewBox="0 0 24 24" fill="none" xmlns="http://www.w3.org/2000/svg">
<path fill-rule="evenodd" clip-rule="evenodd" d="M2.75 5.75V10.4674H8.19718C9.30822 10.4674 10.0678 10.1296 10.5416 9.69388C11.0183 9.25549 11.25 8.67973 11.25 8.10869C11.25 7.53766 11.0183 6.9619 10.5416 6.52351C10.0678 6.08776 9.30822 5.75 8.19718 5.75L2.75 5.75ZM10.9692 11.2448C11.1823 11.1117 11.3784 10.9622 11.557 10.798C12.3479 10.0706 12.75 9.092 12.75 8.10869C12.75 7.12539 12.3479 6.14679 11.557 5.41943C10.7632 4.68942 9.62136 4.25 8.19718 4.25H2.00072C1.58651 4.25 1.25 4.58579 1.25 5V18C1.25 18.4142 1.58579 18.75 2 18.75H8.19718C9.64022 18.75 10.7899 18.2628 11.5805 17.4697C12.3638 16.6838 12.75 15.6413 12.75 14.6087C12.75 13.5761 12.3638 12.5336 11.5805 11.7477C11.396 11.5626 11.192 11.3942 10.9692 11.2448ZM2.75 17.25H8.19718C9.28936 17.25 10.041 16.8894 10.5181 16.4108C11.0024 15.9249 11.25 15.2718 11.25 14.6087C11.25 13.9456 11.0024 13.2925 10.5181 12.8066C10.041 12.328 9.28936 11.9674 8.19718 11.9674H2.75V17.25Z" fill="white"/>
<path fill-rule="evenodd" clip-rule="evenodd" d="M14.814 12.75H21.186C20.879 10.9841 19.5087 9.75 18 9.75C16.4913 9.75 15.121 10.9841 14.814 12.75ZM13.25 13.5C13.25 10.686 15.296 8.25 18 8.25C20.704 8.25 22.75 10.686 22.75 13.5C22.75 13.9142 22.4142 14.25 22 14.25H14C13.5858 14.25 13.25 13.9142 13.25 13.5Z" fill="white"/>
<path fill-rule="evenodd" clip-rule="evenodd" d="M14 12.75C14.4142 12.75 14.75 13.0858 14.75 13.5C14.75 15.6566 16.2857 17.25 18 17.25C18.8688 17.25 19.4705 17.035 19.8965 16.751C20.3272 16.4638 20.6237 16.0756 20.8292 15.6646C21.0144 15.2941 21.4649 15.1439 21.8354 15.3292C22.2059 15.5144 22.3561 15.9649 22.1708 16.3354C21.8763 16.9244 21.4228 17.5362 20.7285 17.999C20.0295 18.465 19.1312 18.75 18 18.75C15.296 18.75 13.25 16.314 13.25 13.5C13.25 13.0858 13.5858 12.75 14 12.75Z" fill="white"/>
<path fill-rule="evenodd" clip-rule="evenodd" d="M14.75 6C14.75 5.58579 15.0858 5.25 15.5 5.25L20.5 5.25C20.9142 5.25 21.25 5.58579 21.25 6C21.25 6.41421 20.9142 6.75 20.5 6.75L15.5 6.75C15.0858 6.75 14.75 6.41421 14.75 6Z" fill="white"/>
</svg>
