<svg width="24" height="24" viewBox="0 0 24 24" fill="none" xmlns="http://www.w3.org/2000/svg">
<path fill-rule="evenodd" clip-rule="evenodd" d="M12 2.75C6.89137 2.75 2.75 6.89137 2.75 12C2.75 17.1086 6.89137 21.25 12 21.25C17.1086 21.25 21.25 17.1086 21.25 12C21.25 6.89137 17.1086 2.75 12 2.75ZM1.25 12C1.25 6.06294 6.06294 1.25 12 1.25C17.9371 1.25 22.75 6.06294 22.75 12C22.75 17.9371 17.9371 22.75 12 22.75C6.06294 22.75 1.25 17.9371 1.25 12Z" fill="white"/>
<path fill-rule="evenodd" clip-rule="evenodd" d="M8.05204 2.02844C8.38424 1.78101 8.85411 1.84973 9.10154 2.18192C13.1544 7.62323 16.2148 13.731 17.4119 20.7171C17.4819 21.1254 17.2076 21.513 16.7993 21.583C16.3911 21.653 16.0034 21.3787 15.9335 20.9704C14.7853 14.2696 11.8457 8.37741 7.89856 3.07793C7.65113 2.74574 7.71985 2.27586 8.05204 2.02844Z" fill="white"/>
<path fill-rule="evenodd" clip-rule="evenodd" d="M19.5721 4.38609C19.9112 4.62398 19.9932 5.09171 19.7553 5.4308C17.672 8.40042 14.1738 9.96201 10.8074 10.7718C7.42422 11.5857 4.04628 11.6715 2.03605 11.5901C1.62218 11.5733 1.30026 11.2242 1.31703 10.8103C1.3338 10.3964 1.68291 10.0745 2.09679 10.0913C4.02007 10.1692 7.25032 10.0847 10.4566 9.31344C13.6796 8.53811 16.7522 7.09971 18.5274 4.56933C18.7653 4.23024 19.233 4.1482 19.5721 4.38609Z" fill="white"/>
<path fill-rule="evenodd" clip-rule="evenodd" d="M11.6907 12.6387C14.9024 11.3699 18.6919 11.0532 22.1814 12.0906C22.5784 12.2087 22.8046 12.6262 22.6865 13.0232C22.5685 13.4203 22.151 13.6465 21.7539 13.5284C18.6195 12.5965 15.1752 12.8749 12.2418 14.0338C9.30136 15.1954 6.95756 17.2061 5.9221 19.6531C5.76069 20.0346 5.32059 20.2129 4.93913 20.0515C4.55766 19.8901 4.37927 19.45 4.54069 19.0686C5.77381 16.1544 8.48617 13.9047 11.6907 12.6387Z" fill="white"/>
</svg>
