<svg width="151" height="151" viewBox="0 0 151 151" fill="none" xmlns="http://www.w3.org/2000/svg">
<circle cx="75.5" cy="75.5" r="74" fill="#131313" stroke="#131313" stroke-width="3"/>
<g clip-path="url(#clip0_272_1759)">
<rect width="51.5176" height="77.261" transform="translate(51.5176 39.9706)" fill="#131313"/>
<path d="M64.3993 117.231C71.5073 117.231 77.2761 111.463 77.2761 104.354V91.4777H64.3993C57.2913 91.4777 51.5225 97.2465 51.5225 104.354C51.5225 111.463 57.2913 117.231 64.3993 117.231Z" fill="#0ACF83"/>
<path d="M51.5225 78.601C51.5225 71.4929 57.2913 65.7241 64.3993 65.7241H77.2761V91.4778H64.3993C57.2913 91.4778 51.5225 85.709 51.5225 78.601Z" fill="#A259FF"/>
<path d="M51.5225 52.8474C51.5225 45.7394 57.2913 39.9706 64.3993 39.9706H77.2761V65.7243H64.3993C57.2913 65.7243 51.5225 59.9554 51.5225 52.8474Z" fill="#F24E1E"/>
<path d="M77.2764 39.9705H90.1532C97.2612 39.9705 103.03 45.7393 103.03 52.8473C103.03 59.9553 97.2612 65.7241 90.1532 65.7241H77.2764V39.9705Z" fill="#FF7262"/>
<path d="M103.03 78.601C103.03 85.709 97.2612 91.4778 90.1532 91.4778C83.0452 91.4778 77.2764 85.709 77.2764 78.601C77.2764 71.4929 83.0452 65.7241 90.1532 65.7241C97.2612 65.7241 103.03 71.4929 103.03 78.601Z" fill="#1ABCFE"/>
</g>
<defs>
<clipPath id="clip0_272_1759">
<rect width="51.5176" height="77.261" fill="white" transform="translate(51.5176 39.9706)"/>
</clipPath>
</defs>
</svg>
