<svg width="70" height="57" viewBox="0 0 70 57" fill="none" xmlns="http://www.w3.org/2000/svg">
<path d="M31.3892 6.91912L19.0698 29.8704L11.3069 32.0642C12.2069 30.3766 13.2195 29.0266 14.3445 28.014C15.4696 26.8889 16.7634 26.3264 18.226 26.3264C21.4887 26.3264 24.4138 27.6765 27.0015 30.3766C29.7016 32.9643 31.0517 36.3395 31.0517 40.5022C31.0517 44.8899 29.5328 48.6589 26.4952 51.809C23.57 54.9592 19.9136 56.5343 15.5258 56.5343C11.3631 56.5343 7.70667 55.0155 4.5565 51.9778C1.51883 48.8276 0 45.0024 0 40.5022C0 38.7021 0.337518 36.6207 1.01255 34.2581C1.8001 31.8955 3.20642 28.8016 5.23153 24.9764L18.7323 0L31.3892 6.91912ZM69.36 6.91912L57.0406 29.8704L49.4464 32.0642C50.234 30.3766 51.1903 29.0266 52.3153 28.014C53.5529 26.8889 54.8467 26.3264 56.1968 26.3264C59.4594 26.3264 62.4409 27.6765 65.141 30.3766C67.8412 32.9643 69.1912 36.3395 69.1912 40.5022C69.1912 44.8899 67.6724 48.6589 64.6347 51.809C61.7096 54.9592 58.0531 56.5343 53.6654 56.5343C49.5027 56.5343 45.8462 55.0155 42.6961 51.9778C39.6584 48.8276 38.1396 45.0024 38.1396 40.5022C38.1396 38.7021 38.4771 36.6207 39.1521 34.2581C39.8271 31.8955 41.1772 28.8016 43.2023 24.9764L56.8718 0L69.36 6.91912Z" fill="#FC5071"/>
</svg>
