<svg width="24" height="24" viewBox="0 0 24 24" fill="none" xmlns="http://www.w3.org/2000/svg">
<path fill-rule="evenodd" clip-rule="evenodd" d="M12 8.75C10.2051 8.75 8.75 10.2051 8.75 12C8.75 13.7949 10.2051 15.25 12 15.25C13.7949 15.25 15.25 13.7949 15.25 12C15.25 10.2051 13.7949 8.75 12 8.75ZM7.25 12C7.25 9.37665 9.37665 7.25 12 7.25C14.6234 7.25 16.75 9.37665 16.75 12C16.75 14.6234 14.6234 16.75 12 16.75C9.37665 16.75 7.25 14.6234 7.25 12Z" fill="white"/>
<path fill-rule="evenodd" clip-rule="evenodd" d="M8 3.75C5.65279 3.75 3.75 5.65279 3.75 8V16C3.75 18.3472 5.65279 20.25 8 20.25H16C18.3472 20.25 20.25 18.3472 20.25 16V8C20.25 5.65279 18.3472 3.75 16 3.75H8ZM2.25 8C2.25 4.82436 4.82436 2.25 8 2.25H16C19.1756 2.25 21.75 4.82436 21.75 8V16C21.75 19.1756 19.1756 21.75 16 21.75H8C4.82436 21.75 2.25 19.1756 2.25 16V8Z" fill="white"/>
<path fill-rule="evenodd" clip-rule="evenodd" d="M18.0117 5.94156C18.3196 6.21865 18.3446 6.69287 18.0675 7.00075L18.0575 7.01186C17.7804 7.31975 17.3062 7.34471 16.9983 7.06761C16.6904 6.79052 16.6654 6.3163 16.9425 6.00842L16.9525 5.99731C17.2296 5.68942 17.7038 5.66447 18.0117 5.94156Z" fill="white"/>
</svg>
